Coordinates
version=1
nRows=24
nColumns=38
inDegrees=no

Units are S.I. units (second, meters, Newtons, ...)
If the header above contains a line with 'inDegrees', this indicates whether rotational values are in degrees (yes) or radians (no).

endheader
time	pelvis_tilt	pelvis_list	pelvis_rotation	pelvis_tx	pelvis_ty	pelvis_tz	hip_flexion_r	hip_adduction_r	hip_rotation_r	knee_angle_r	ankle_angle_r	subtalar_angle_r	mtp_angle_r	hip_flexion_l	hip_adduction_l	hip_rotation_l	knee_angle_l	ankle_angle_l	subtalar_angle_l	mtp_angle_l	lumbar_extension	lumbar_bending	lumbar_rotation	arm_flex_r	arm_add_r	arm_rot_r	elbow_flex_r	pro_sup_r	wrist_flex_r	wrist_dev_r	arm_flex_l	arm_add_l	arm_rot_l	elbow_flex_l	pro_sup_l	wrist_flex_l	wrist_dev_l
5	2.40292	1.51444	-0.770958	0.668158	1.82963	0.931691	-0.0620557	0.00172395	0.131127	0.880875	-0.446559	0	0	0.278723	-0.0359719	-0.194223	0.512434	-0.309553	0	0	-0.150339	0.150374	0.042418	0.129167	-0.272267	-0.12916	1.89255	1.5708	0	0	0.305069	-0.406787	0.268579	1.66692	1.5708	0	0
5.01	2.59656	1.51212	-0.956225	0.667513	1.83631	0.931768	-0.028515	-0.023773	0.0686387	0.971649	-0.466199	0	0	0.262367	-0.0291653	-0.197585	0.516188	-0.30191	0	0	-0.156194	0.140826	0.0349314	0.123424	-0.268476	-0.133975	1.89486	1.5708	0	0	0.307347	-0.411805	0.27462	1.66961	1.5708	0	0
5.02	2.61369	1.51044	-0.973679	0.666547	1.84136	0.932417	-0.0110364	-0.0263808	0.0652605	1.0049	-0.479312	0	0	0.253925	-0.0284039	-0.197463	0.516205	-0.297267	0	0	-0.159501	0.140765	0.0373037	0.12069	-0.270492	-0.138624	1.89606	1.5708	0	0	0.310941	-0.410531	0.280781	1.66801	1.5708	0	0
5.03	2.58879	1.51386	-0.9437	0.665147	1.84681	0.932569	0.00960773	-0.0299548	0.05688	1.03476	-0.484966	0	0	0.252405	-0.0248443	-0.190744	0.516906	-0.292893	0	0	-0.152425	0.140201	0.0303088	0.118713	-0.260558	-0.145839	1.89328	1.5708	0	0	0.309065	-0.41064	0.283686	1.66613	1.5708	0	0
5.04	2.57434	1.51371	-0.92821	0.664024	1.85157	0.933041	0.0276932	-0.0308609	0.0548666	1.06273	-0.480076	0	0	0.247703	-0.0240827	-0.188063	0.517569	-0.289381	0	0	-0.152031	0.141387	0.0279604	0.119563	-0.262227	-0.146102	1.89011	1.5708	0	0	0.309225	-0.409583	0.285539	1.66477	1.5708	0	0
5.05	2.60345	1.5062	-0.963612	0.663414	1.8552	0.934161	0.0388207	-0.0280719	0.0621703	1.08581	-0.469657	0	0	0.23488	-0.0278203	-0.193581	0.517782	-0.28636	0	0	-0.164452	0.144877	0.0338524	0.125881	-0.275945	-0.139177	1.88638	1.5708	0	0	0.313735	-0.406919	0.286353	1.66342	1.5708	0	0
5.06	2.44926	1.50662	-0.822042	0.662347	1.85742	0.935213	0.0421582	-0.00310791	0.118801	1.05799	-0.443776	0	0	0.237436	-0.0339305	-0.19431	0.515137	-0.285078	0	0	-0.165759	0.154731	0.0475619	0.132127	-0.284146	-0.140295	1.88338	1.5708	0	0	0.318547	-0.39847	0.288529	1.65731	1.5708	0	0
5.07	2.43782	1.50528	-0.808576	0.661324	1.86163	0.935709	0.056572	-0.00251326	0.115728	1.07424	-0.424995	0	0	0.232225	-0.0344179	-0.193335	0.515836	-0.28213	0	0	-0.166235	0.156537	0.0441009	0.135404	-0.275314	-0.146313	1.88002	1.5708	0	0	0.319632	-0.396865	0.289402	1.65473	1.5708	0	0
5.08	2.43026	1.50399	-0.798274	0.660152	1.86573	0.936195	0.0701578	-0.00271655	0.111772	1.0867	-0.409328	0	0	0.226506	-0.0340063	-0.191202	0.5153	-0.279098	0	0	-0.166788	0.158701	0.0401884	0.138537	-0.277112	-0.145614	1.87546	1.5708	0	0	0.320968	-0.394634	0.290342	1.65159	1.5708	0	0
5.09	2.43228	1.50157	-0.797493	0.659024	1.86966	0.936774	0.081551	-0.00253791	0.108284	1.09498	-0.39541	0	0	0.219322	-0.0339811	-0.189065	0.514076	-0.276267	0	0	-0.16899	0.161342	0.036534	0.142033	-0.288806	-0.138275	1.86956	1.5708	0	0	0.32339	-0.392498	0.291569	1.64808	1.5708	0	0
5.1	2.43471	1.49904	-0.797083	0.658013	1.87349	0.9374	0.0914586	-0.00165866	0.105904	1.09855	-0.382281	0	0	0.211919	-0.0342533	-0.186113	0.512332	-0.273913	0	0	-0.171447	0.163738	0.0332868	0.145459	-0.290488	-0.137903	1.86507	1.5708	0	0	0.326538	-0.390414	0.293186	1.64424	1.5708	0	0
5.11	2.42779	1.49702	-0.787639	0.657137	1.87726	0.937987	0.1011	-0.000254551	0.10427	1.09781	-0.373091	0	0	0.2054	-0.0350523	-0.183854	0.510503	-0.27233	0	0	-0.1729	0.166132	0.030452	0.148655	-0.282405	-0.143915	1.862	1.5708	0	0	0.329129	-0.387994	0.294442	1.64028	1.5708	0	0
5.12	2.41793	1.49496	-0.775367	0.656303	1.88086	0.938536	0.11018	0.00122819	0.102274	1.09416	-0.357767	0	0	0.198882	-0.0357384	-0.1803	0.507638	-0.269449	0	0	-0.174699	0.168865	0.0285134	0.151214	-0.283928	-0.144223	1.8586	1.5708	0	0	0.332532	-0.385059	0.296487	1.63606	1.5708	0	0
5.13	2.40272	1.49295	-0.758256	0.655523	1.88427	0.939058	0.119034	0.00261442	0.0998179	1.08741	-0.344489	0	0	0.192731	-0.036715	-0.177461	0.504314	-0.266488	0	0	-0.176486	0.17194	0.0271644	0.154124	-0.295354	-0.138027	1.85351	1.5708	0	0	0.336016	-0.381858	0.298804	1.63183	1.5708	0	0
5.14	2.38375	1.49196	-0.737568	0.654834	1.88758	0.939502	0.128222	0.00301704	0.0967258	1.07824	-0.331952	0	0	0.187746	-0.037303	-0.174883	0.501011	-0.263724	0	0	-0.177035	0.174268	0.0262998	0.156697	-0.297198	-0.138904	1.84962	1.5708	0	0	0.340121	-0.379211	0.30159	1.62699	1.5708	0	0
5.15	2.3607	1.49196	-0.713123	0.654242	1.89081	0.939829	0.137349	0.00303606	0.0943331	1.06644	-0.319464	0	0	0.183859	-0.0374408	-0.172562	0.498024	-0.261839	0	0	-0.176431	0.175955	0.0262529	0.158531	-0.299009	-0.140189	1.84605	1.5708	0	0	0.344604	-0.376466	0.305581	1.62159	1.5708	0	0
5.16	2.33507	1.49237	-0.686262	0.65374	1.89389	0.940124	0.146014	0.00298578	0.0924171	1.05201	-0.306785	0	0	0.180453	-0.037332	-0.170139	0.494553	-0.2603	0	0	-0.17561	0.177254	0.0265945	0.160328	-0.300764	-0.14157	1.84254	1.5708	0	0	0.349754	-0.374214	0.309686	1.61611	1.5708	0	0
5.17	2.30859	1.49288	-0.659009	0.653217	1.89681	0.94042	0.154241	0.00236496	0.090208	1.03535	-0.296372	0	0	0.177131	-0.0371381	-0.168461	0.490653	-0.259025	0	0	-0.174954	0.178396	0.0272648	0.162851	-0.293886	-0.149237	1.84029	1.5708	0	0	0.354682	-0.371389	0.313021	1.61075	1.5708	0	0
5.18	2.28019	1.49333	-0.62999	0.652731	1.89963	0.940695	0.161581	0.00180386	0.088515	1.0159	-0.2841	0	0	0.173757	-0.0369917	-0.166567	0.486228	-0.257379	0	0	-0.174542	0.179713	0.0289466	0.164678	-0.296097	-0.151716	1.83758	1.5708	0	0	0.360493	-0.36817	0.317555	1.60492	1.5708	0	0
5.19	2.25196	1.49336	-0.601064	0.65232	1.90237	0.940978	0.167568	0.00204464	0.0873562	0.994043	-0.27179	0	0	0.170166	-0.037309	-0.164793	0.481706	-0.255562	0	0	-0.173688	0.181451	0.0291978	0.168048	-0.307476	-0.145143	1.83134	1.5708	0	0	0.365336	-0.365552	0.32078	1.59877	1.5708	0	0
5.2	2.39626	1.48467	-0.743309	0.652391	1.90427	0.941729	0.156089	0.000797593	0.0840668	0.973056	-0.258356	0	0	0.150475	-0.0372045	-0.165574	0.479664	-0.251782	0	0	-0.193527	0.176927	0.0284904	0.177973	-0.307954	-0.145289	1.82627	1.5708	0	0	0.379339	-0.362112	0.374191	1.52084	1.5708	0	0
5.21	2.38543	1.48353	-0.732496	0.652095	1.90676	0.94212	0.158194	0.00206894	0.0835421	0.946787	-0.249388	0	0	0.14499	-0.0378893	-0.1639	0.475097	-0.250421	0	0	-0.195165	0.178836	0.0303662	0.181985	-0.31057	-0.145697	1.8221	1.5708	0	0	0.386935	-0.360016	0.379559	1.51338	1.5708	0	0
5.22	2.36085	1.48386	-0.708074	0.651871	1.90924	0.942359	0.162971	0.00262401	0.0823597	0.921868	-0.242294	0	0	0.141843	-0.0384319	-0.16254	0.471021	-0.249612	0	0	-0.195094	0.180158	0.0313562	0.186181	-0.304201	-0.151229	1.81957	1.5708	0	0	0.392025	-0.357798	0.382049	1.50819	1.5708	0	0
5.23	2.331	1.48358	-0.678115	0.651628	1.91168	0.942632	0.164634	0.00421724	0.0815628	0.889129	-0.231136	0	0	0.138144	-0.0392203	-0.158916	0.465253	-0.247957	0	0	-0.194369	0.182651	0.0314199	0.190856	-0.314436	-0.143693	1.8127	1.5708	0	0	0.397233	-0.356031	0.384858	1.50196	1.5708	0	0
